<svg width="1006" height="333" viewBox="0 0 1006 333" fill="none" xmlns="http://www.w3.org/2000/svg">
<rect width="1006" height="228" rx="114" fill="#1995AD"/>
<path d="M323.479 64.5601L293.769 165.37H315.709L335.979 86.2701L357.419 165.37H381.059L350.169 64.5601H323.479Z" fill="white"/>
<path d="M441.109 75.7201L416.949 115.01L413.379 121.13V64.5601H389.619V165.37H413.379V155.03L437.379 115.82L441.189 109.17L441.109 113.16V165.37H464.869V64.5601H441.109V75.7201Z" fill="white"/>
<path d="M517.389 101.79H509.069V81.8501H546.769V64.5701H485.299V165.38H516.429C525.459 165.38 532.529 164.72 537.659 163.39C542.779 162.06 547.259 158.85 551.089 153.75C554.919 148.65 556.829 142.09 556.829 134.07C556.829 123.58 553.969 115.58 548.239 110.07C542.509 104.56 532.229 101.8 517.389 101.8V101.79ZM528.109 144.9C525.649 147.03 521.759 148.09 516.469 148.09H509.079V119.07H516.469C522.879 119.07 527.039 120.42 528.949 123.12C530.859 125.82 531.809 129.42 531.809 133.92C531.809 139.12 530.579 142.78 528.109 144.91V144.9Z" fill="white"/>
<path d="M595.639 64.5601H571.879V165.37H595.639V64.5601Z" fill="white"/>
<path d="M664.379 64.5601H633.829L610.309 146.98H603.499V185.83H621.089L623.149 165.37H672.659L674.799 185.83H692.379V146.98H685.649L664.399 64.5601H664.379ZM631.939 146.98L645.549 85.8301H648.559L661.509 146.98H631.939Z" fill="white"/>
<path d="M732.289 101.79H723.889V64.5701H700.129V165.38H731.259C740.289 165.38 747.369 164.72 752.489 163.39C757.609 162.06 762.089 158.85 765.919 153.75C769.749 148.65 771.659 142.09 771.659 134.07C771.659 123.58 768.799 115.58 763.069 110.07C757.339 104.56 747.079 101.8 732.299 101.8L732.289 101.79ZM744.489 143.46C743.059 145.8 741.369 147.32 739.419 148.01C737.469 148.7 734.749 149.05 731.259 149.05H723.889V119.07H731.259C737.749 119.07 741.939 120.48 743.819 123.29C745.689 126.1 746.629 129.78 746.629 134.32C746.629 138.07 745.919 141.12 744.489 143.46Z" fill="white"/>
<path d="M812.689 118.99H780.449V135.31H812.689V118.99Z" fill="white"/>
<path d="M874.469 64.5601H850.549L818.069 165.37H839.909L845.209 144.54H875.669L881.059 165.37H905.359L874.469 64.5601ZM849.789 127.27L860.269 85.9701L871.199 127.27H849.789Z" fill="white"/>
<path fill-rule="evenodd" clip-rule="evenodd" d="M135.639 32.13C98.3988 40.94 104.629 64.89 104.629 64.89C109.959 57.58 118.799 53.45 118.799 53.45L124.329 50.56C149.539 43.08 166.149 79.94 127.769 105.85C89.3788 131.76 101.979 164.34 101.979 164.34C107.709 120.54 146.669 118.93 165.869 93.56C183.389 70.4 174.779 31 144.819 31C141.959 31 138.899 31.36 135.639 32.13Z" fill="white"/>
<path fill-rule="evenodd" clip-rule="evenodd" d="M165.539 111.53C134.309 121.95 120.559 143.05 117.879 154.73C116.069 162.62 112.369 183.11 145.519 191.86C145.519 191.86 140.939 169.16 151.539 155.54C162.139 141.92 182.119 134.1 189.209 125.69C196.299 117.28 197.159 97.8399 192.429 88.4299C192.429 88.4299 188.889 103.74 165.529 111.53H165.539Z" fill="white"/>
<path fill-rule="evenodd" clip-rule="evenodd" d="M177.039 148.32C145.529 168.62 167.299 191.86 167.299 191.86C167.299 191.86 175.319 201.21 194.609 195.87C213.899 190.53 228.039 174.5 229.179 150.46C230.329 126.42 215.719 113.33 215.719 113.33C216.289 125.08 208.559 128.02 177.039 148.32Z" fill="white"/>
<path fill-rule="evenodd" clip-rule="evenodd" d="M105.409 58.7201C103.569 61.4601 104.069 64.3301 104.709 68.4101C105.809 75.4301 100.669 80.7401 100.669 80.7401C113.339 72.2301 114.509 64.9801 112.979 60.2501C111.449 55.5101 113.839 52.6001 113.839 52.6001C109.279 54.8501 106.739 56.7501 105.419 58.7301L105.409 58.7201ZM107.949 58.8601C107.949 58.4201 108.329 58.0601 108.809 58.0601C109.289 58.0601 109.669 58.4201 109.669 58.8601C109.669 59.3001 109.279 59.6601 108.809 59.6601C108.329 59.6601 107.949 59.3001 107.949 58.8601Z" fill="white"/>
<path d="M770.55 271.359H778.167L798 322.378H789.521L784.132 308.51H764.443L759.125 322.378H750.574L770.55 271.359ZM782.551 302.545L774.359 280.198L765.88 302.545H782.551Z" fill="#1995AD"/>
<path d="M728.99 322.378V278.473H711.96L711.672 287.958C711.385 294.809 710.834 300.486 710.02 304.989C709.205 309.444 708.032 312.965 706.499 315.552C704.966 318.091 703.049 319.911 700.75 321.013C698.451 322.067 695.696 322.594 692.486 322.594V315.552C694.259 315.552 695.816 315.144 697.157 314.33C698.499 313.468 699.624 311.959 700.534 309.803C701.493 307.647 702.235 304.629 702.762 300.749C703.337 296.821 703.72 291.815 703.912 285.731L704.415 271.359H737.11V322.378H728.99Z" fill="#1995AD"/>
<path d="M655.843 322.737C652.154 322.737 648.825 322.019 645.854 320.582C642.884 319.144 640.321 317.204 638.166 314.761C636.01 312.27 634.333 309.492 633.136 306.426C631.986 303.312 631.411 300.126 631.411 296.869C631.411 293.467 632.034 290.234 633.279 287.168C634.525 284.054 636.25 281.3 638.453 278.904C640.657 276.461 643.244 274.545 646.214 273.156C649.232 271.719 652.489 271 655.986 271C659.627 271 662.933 271.743 665.903 273.228C668.921 274.713 671.484 276.701 673.591 279.192C675.747 281.683 677.4 284.461 678.55 287.527C679.747 290.593 680.346 293.731 680.346 296.941C680.346 300.342 679.723 303.599 678.478 306.713C677.28 309.779 675.579 312.534 673.376 314.977C671.172 317.372 668.561 319.264 665.543 320.653C662.573 322.043 659.34 322.737 655.843 322.737ZM639.603 296.869C639.603 299.264 639.986 301.587 640.753 303.839C641.519 306.09 642.597 308.102 643.986 309.875C645.423 311.599 647.148 312.965 649.16 313.971C651.172 314.977 653.423 315.48 655.914 315.48C658.501 315.48 660.801 314.953 662.813 313.899C664.825 312.845 666.501 311.432 667.843 309.659C669.232 307.839 670.286 305.827 671.004 303.623C671.723 301.372 672.082 299.12 672.082 296.869C672.082 294.473 671.699 292.174 670.933 289.97C670.214 287.719 669.136 285.731 667.699 284.006C666.262 282.234 664.537 280.844 662.525 279.838C660.561 278.832 658.358 278.329 655.914 278.329C653.328 278.329 651.028 278.856 649.016 279.91C647.004 280.964 645.304 282.377 643.914 284.15C642.525 285.922 641.447 287.91 640.681 290.114C639.962 292.318 639.603 294.569 639.603 296.869Z" fill="#1995AD"/>
<path d="M582.409 322.378V271.359H590.457V292.701H596.422L612.446 271.359H621.644L602.889 296.078L623.009 322.378H613.164L596.422 300.102H590.457V322.378H582.409Z" fill="#1995AD"/>
<path d="M504.487 322.378V271.359H512.535V315.264H529.997V271.359H538.117V315.264H555.578V271.359H563.698V322.378H504.487Z" fill="#1995AD"/>
<path d="M464.466 322.737C460.778 322.737 457.448 322.019 454.478 320.582C451.508 319.144 448.945 317.204 446.789 314.761C444.634 312.27 442.957 309.492 441.759 306.426C440.61 303.312 440.035 300.126 440.035 296.869C440.035 293.467 440.657 290.234 441.903 287.168C443.149 284.054 444.873 281.3 447.077 278.904C449.28 276.461 451.867 274.545 454.837 273.156C457.855 271.719 461.113 271 464.61 271C468.251 271 471.556 271.743 474.526 273.228C477.544 274.713 480.107 276.701 482.215 279.192C484.371 281.683 486.023 284.461 487.173 287.527C488.371 290.593 488.97 293.731 488.97 296.941C488.97 300.342 488.347 303.599 487.101 306.713C485.904 309.779 484.203 312.534 481.999 314.977C479.796 317.372 477.185 319.264 474.167 320.653C471.197 322.043 467.963 322.737 464.466 322.737ZM448.226 296.869C448.226 299.264 448.61 301.587 449.376 303.839C450.143 306.09 451.221 308.102 452.61 309.875C454.047 311.599 455.771 312.965 457.783 313.971C459.796 314.977 462.047 315.48 464.538 315.48C467.125 315.48 469.424 314.953 471.436 313.899C473.448 312.845 475.125 311.432 476.466 309.659C477.856 307.839 478.91 305.827 479.628 303.623C480.347 301.372 480.706 299.12 480.706 296.869C480.706 294.473 480.323 292.174 479.556 289.97C478.838 287.719 477.76 285.731 476.323 284.006C474.886 282.234 473.161 280.844 471.149 279.838C469.185 278.832 466.981 278.329 464.538 278.329C461.951 278.329 459.652 278.856 457.64 279.91C455.628 280.964 453.927 282.377 452.538 284.15C451.149 285.922 450.071 287.91 449.304 290.114C448.586 292.318 448.226 294.569 448.226 296.869Z" fill="#1995AD"/>
<path d="M424.574 271.359V322.378H416.454V299.887H390.729V322.378H382.681V271.359H390.729V292.701H416.454V271.359H424.574Z" fill="#1995AD"/>
<path d="M316.611 332.151V315.264H319.054C320.395 315.264 321.545 314.737 322.503 313.683C323.509 312.629 324.347 310.953 325.018 308.653C325.737 306.354 326.288 303.336 326.671 299.599C327.102 295.815 327.413 291.192 327.605 285.731L327.964 271.359H360.803V315.264H367.27V332.151H360.156V322.378H323.725V332.151H316.611ZM329.258 315.264H352.683V278.473H335.437L335.222 286.809C335.078 292.318 334.791 296.988 334.359 300.821C333.928 304.605 333.306 307.671 332.491 310.019C331.677 312.366 330.599 314.115 329.258 315.264Z" fill="#1995AD"/>
<path d="M272.714 322.666V315.911H276.379C277.577 315.911 278.487 315.624 279.11 315.049C279.732 314.474 280.331 313.612 280.906 312.462L282.415 309.156L261.648 271.359H270.559L286.08 300.893L299.23 271.359H307.781L287.086 316.27C285.936 318.618 284.667 320.27 283.277 321.228C281.936 322.186 280.092 322.666 277.744 322.666H272.714Z" fill="#1995AD"/>
<path d="M208 296.509C208 293.395 208.551 290.354 209.653 287.383C210.755 284.365 212.359 281.635 214.467 279.192C216.623 276.701 219.234 274.737 222.3 273.299C225.366 271.814 228.839 271.072 232.719 271.072C237.318 271.072 241.294 272.126 244.647 274.234C248.001 276.293 250.492 278.952 252.12 282.21L245.797 286.449C244.839 284.389 243.617 282.761 242.132 281.563C240.695 280.365 239.114 279.527 237.39 279.048C235.713 278.569 234.06 278.329 232.432 278.329C229.749 278.329 227.401 278.88 225.389 279.982C223.377 281.036 221.677 282.449 220.288 284.222C218.946 285.994 217.916 287.982 217.198 290.186C216.527 292.389 216.192 294.593 216.192 296.797C216.192 299.24 216.599 301.611 217.413 303.911C218.228 306.162 219.353 308.174 220.791 309.947C222.276 311.671 224.024 313.036 226.036 314.042C228.048 315.048 230.252 315.551 232.647 315.551C234.276 315.551 235.976 315.264 237.749 314.689C239.521 314.114 241.15 313.228 242.635 312.03C244.168 310.785 245.366 309.156 246.228 307.144L252.911 310.953C251.857 313.492 250.204 315.647 247.953 317.42C245.749 319.192 243.258 320.534 240.48 321.444C237.749 322.354 235.042 322.809 232.36 322.809C228.767 322.809 225.485 322.067 222.515 320.581C219.545 319.049 216.982 317.037 214.826 314.545C212.671 312.007 210.994 309.18 209.796 306.066C208.599 302.905 208 299.719 208 296.509Z" fill="#1995AD"/>
</svg>
