<svg width="288" height="90" viewBox="0 0 288 90" fill="none" xmlns="http://www.w3.org/2000/svg">
<rect width="288" height="90" rx="45" fill="#0B0C0F"/>
<g clip-path="url(#clip0_232_142)">
<path d="M122.714 21.3877H113.447V43.905H122.714C129.746 43.905 133.82 39.4144 133.82 32.6302C133.82 25.8782 129.746 21.3877 122.714 21.3877ZM122.714 40.8359H117.029V24.4245H122.714C127.478 24.4245 130.206 27.5582 130.206 32.6302C130.206 37.7022 127.478 40.8359 122.714 40.8359Z" fill="white"/>
<path d="M102.57 39.4144L103.293 42.742H102.801L92.6797 21.3877H92.6468H86.1733V43.905H89.7223V25.8459L88.9993 22.5184H89.4923L99.6132 43.905H99.646H106.119V21.3877H102.57V39.4144Z" fill="white"/>
<path d="M49.3696 31.241C45.9521 30.8856 42.8304 30.5303 42.8304 27.752C42.8304 25.4905 44.8349 24.0691 48.2852 24.0691C51.6698 24.0691 54.4299 25.8459 54.5614 29.5288H58.2089C57.946 24.0691 53.97 21 48.2195 21C42.7976 21 39.2487 23.6168 39.2487 27.5258C39.2487 33.2117 44.2763 33.7932 48.7452 34.2778C52.1298 34.6332 55.1529 34.9562 55.1529 37.6053C55.1529 39.7698 52.7542 41.1266 48.8767 41.1266C44.9006 41.1266 41.746 39.3175 41.6146 35.6347H38C38.2629 41.0943 42.6333 44.1958 48.9424 44.1958C54.8244 44.1958 58.7676 41.6436 58.7676 37.8315C58.7676 32.3071 53.8057 31.7256 49.3696 31.241Z" fill="white"/>
<path d="M71.8131 35.3439H71.2872L64.6168 21.3877H60.7393L67.5413 35.5378H69.7758V43.905H73.3247V35.5378H75.592L82.3612 21.3877H78.4837L71.8131 35.3439Z" fill="white"/>
<path d="M190.437 21.0646C183.668 21.0646 179.231 25.6843 179.231 32.6624C179.231 39.6405 183.634 44.2603 190.437 44.2603C197.009 44.2603 201.445 39.6405 201.445 32.6624C201.445 25.6843 197.009 21.0646 190.437 21.0646ZM190.371 41.3205C185.869 41.3205 182.846 38.0252 182.846 32.6947C182.846 27.3966 185.869 24.1013 190.371 24.1013C194.775 24.1013 197.83 27.3966 197.83 32.6947C197.83 38.0575 194.775 41.3205 190.371 41.3205Z" fill="white"/>
<path d="M248.797 24.4245V21.3877H232.926V43.905H248.797V40.8359H236.475V33.7932H248.797V30.7241H236.475V24.4245H248.797Z" fill="white"/>
<path d="M216.266 21.3877H207V43.905H216.266C223.298 43.905 227.373 39.4144 227.373 32.6302C227.339 25.8782 223.298 21.3877 216.266 21.3877ZM216.266 40.8359H210.582V24.4245H216.266C221.031 24.4245 223.759 27.5582 223.759 32.6302C223.759 37.7022 221.031 40.8359 216.266 40.8359Z" fill="white"/>
<path d="M163.788 24.1014C167.633 24.1014 170.36 26.2982 171.116 29.9811H174.763C173.876 24.5214 169.801 21.0323 163.985 21.0323C157.216 21.0323 152.78 25.6521 152.78 32.6302C152.78 39.6083 157.183 44.2281 163.985 44.2281C169.768 44.2281 173.876 40.7391 174.763 35.2793H171.116C170.36 39.0914 167.6 41.3206 163.788 41.3206C159.418 41.3206 156.394 37.993 156.394 32.6302C156.394 27.3643 159.385 24.1014 163.788 24.1014Z" fill="white"/>
<path d="M135.955 43.905H139.833L150.611 21.3877H146.733L135.955 43.905Z" fill="#C69BFF"/>
</g>
<path d="M237.088 61.7969C237.088 57.8263 239.456 55.582 242.958 55.582C246.583 55.582 248.951 57.777 248.951 61.5749V62.3641H239.209C239.283 64.7564 240.541 66.5814 243.081 66.5814C245.178 66.5814 246.411 65.4962 246.83 63.7945H249C248.507 66.0634 246.879 68.3324 243.106 68.3324C239.111 68.3324 237.088 65.4222 237.088 61.7969ZM239.234 60.8104H246.805C246.657 58.5908 245.153 57.3084 242.958 57.3084C240.936 57.3084 239.407 58.5908 239.234 60.8104Z" fill="#C69BFF"/>
<path d="M215.304 68.0857V55.8287H217.499V57.8263L217.129 59.306H217.745C218.239 57.0864 219.496 55.582 222.11 55.582C224.355 55.582 225.489 57.1111 225.785 59.306H226.18C226.673 57.0864 227.931 55.582 230.545 55.582C233.159 55.582 234.368 57.6783 234.368 60.4651V68.0857H232.173V60.9337C232.173 58.5662 231.655 57.4564 229.706 57.4564C227.314 57.4564 225.933 59.5773 225.933 62.7834V68.0857H223.738V60.9337C223.738 58.5662 223.22 57.4564 221.272 57.4564C218.88 57.4564 217.499 59.5773 217.499 62.7834V68.0857H215.304Z" fill="#C69BFF"/>
<path d="M200.456 61.7969C200.456 57.8263 202.824 55.582 206.326 55.582C209.951 55.582 212.319 57.777 212.319 61.5749V62.3641H202.577C202.651 64.7564 203.909 66.5814 206.449 66.5814C208.545 66.5814 209.778 65.4962 210.198 63.7945H212.368C211.875 66.0634 210.247 68.3324 206.474 68.3324C202.478 68.3324 200.456 65.4222 200.456 61.7969ZM202.602 60.8104H210.173C210.025 58.5908 208.521 57.3084 206.326 57.3084C204.303 57.3084 202.774 58.5908 202.602 60.8104Z" fill="#C69BFF"/>
<path d="M185.969 68.0858V49.9591H188.164V57.8757L187.77 59.3554H188.411C188.953 57.1358 190.581 55.5821 193.245 55.5821C196.031 55.5821 197.708 57.4071 197.708 60.7118V68.0858H195.538V60.9584C195.538 58.4429 194.576 57.4564 192.48 57.4564C189.817 57.4564 188.164 59.5773 188.164 62.8821V68.0858H185.969Z" fill="#C69BFF"/>
<path d="M183.196 66.2114V68.0857H178.387C177.228 68.0857 176.661 67.5431 176.661 66.3594V57.7029H173.948V55.8286H176.661V52.7212L178.856 52.0553V55.8286H182.703V57.7029H178.856V66.236L183.196 66.2114Z" fill="#C69BFF"/>
<path d="M159.668 68.3324C156.018 68.3324 153.897 66.606 153.897 63.5726H156.092C156.092 65.5949 157.424 66.606 159.693 66.606C161.419 66.606 162.307 66.0635 162.307 64.8057C162.307 63.9672 161.789 63.4739 160.506 63.1287L157.226 62.1668C155.845 61.7722 154.39 60.8844 154.39 58.9361C154.39 56.7905 156.166 55.582 159.076 55.582C162.233 55.582 164.206 57.0371 164.206 59.7006H162.011C162.011 58.0729 160.975 57.2837 159.101 57.2837C157.522 57.2837 156.56 57.8263 156.56 58.9114C156.56 59.7006 157.103 60.1939 158.311 60.5391L161.172 61.353C163.244 61.9449 164.502 62.956 164.502 64.855C164.502 67.0746 162.825 68.3324 159.668 68.3324Z" fill="#C69BFF"/>
<path d="M147.216 68.3324C143.566 68.3324 141.445 66.606 141.445 63.5726H143.64C143.64 65.5949 144.972 66.606 147.241 66.606C148.967 66.606 149.855 66.0635 149.855 64.8057C149.855 63.9672 149.337 63.4739 148.055 63.1287L144.775 62.1668C143.394 61.7722 141.939 60.8844 141.939 58.9361C141.939 56.7905 143.714 55.582 146.624 55.582C149.781 55.582 151.754 57.0371 151.754 59.7006H149.559C149.559 58.0729 148.523 57.2837 146.649 57.2837C145.071 57.2837 144.109 57.8263 144.109 58.9114C144.109 59.7006 144.651 60.1939 145.86 60.5391L148.721 61.353C150.792 61.9449 152.05 62.956 152.05 64.855C152.05 67.0746 150.373 68.3324 147.216 68.3324Z" fill="#C69BFF"/>
<path d="M127.289 61.7969C127.289 57.8263 129.656 55.582 133.158 55.582C136.784 55.582 139.151 57.777 139.151 61.5749V62.3641H129.41C129.484 64.7564 130.741 66.5814 133.281 66.5814C135.378 66.5814 136.611 65.4962 137.03 63.7945H139.2C138.707 66.0634 137.079 68.3324 133.306 68.3324C129.311 68.3324 127.289 65.4222 127.289 61.7969ZM129.434 60.8104H137.005C136.857 58.5908 135.353 57.3084 133.158 57.3084C131.136 57.3084 129.607 58.5908 129.434 60.8104Z" fill="#C69BFF"/>
<path d="M117.522 57.5304C117.522 56.3713 118.09 55.8287 119.249 55.8287H126.179V57.7031H119.717V68.0858H117.522V57.5304Z" fill="#C69BFF"/>
<path d="M101.385 72.8702V55.8287H103.58V57.5303L103.21 58.9854H103.827C104.345 57.0864 105.948 55.582 108.759 55.582C112.335 55.582 114.58 58.3195 114.58 61.9695C114.58 65.5702 112.335 68.3324 108.759 68.3324C105.948 68.3324 104.345 66.8033 103.827 64.9043H103.21L103.58 66.3841V72.8702H101.385ZM103.58 61.9695C103.58 65.1263 105.578 66.458 108.069 66.458C110.584 66.458 112.409 65.077 112.409 61.9695C112.409 58.8374 110.584 57.4564 108.069 57.4564C105.578 57.4564 103.58 58.7881 103.58 61.9695Z" fill="#C69BFF"/>
<path d="M90.8652 68.3324C87.2892 68.3324 85.0449 65.5703 85.0449 61.9449C85.0449 58.3196 87.2892 55.5821 90.8652 55.5821C93.6767 55.5821 95.2797 57.0865 95.8223 58.9855H96.4388L96.0689 57.5304V49.9591H98.2392V68.0858H96.0689V66.3841L96.4388 64.9044H95.8223C95.2797 66.8034 93.6767 68.3324 90.8652 68.3324ZM87.2399 61.9449C87.2399 65.1017 89.0649 66.4581 91.5557 66.4581C94.0466 66.4581 96.0689 65.1017 96.0689 61.9449C96.0689 58.7882 94.0466 57.4564 91.5557 57.4564C89.0649 57.4564 87.2399 58.7882 87.2399 61.9449Z" fill="#C69BFF"/>
<path d="M75.4233 57.5304C75.4233 56.3713 75.9906 55.8287 77.1497 55.8287H84.0798V57.7031H77.6183V68.0858H75.4233V57.5304Z" fill="#C69BFF"/>
<path d="M59.4917 61.9449C59.4917 58.3195 62.0812 55.582 66.0025 55.582C69.8991 55.582 72.4887 58.3195 72.4887 61.9449C72.4887 65.5949 69.8991 68.3324 66.0025 68.3324C62.0812 68.3324 59.4917 65.5949 59.4917 61.9449ZM61.662 61.9449C61.662 64.4357 63.191 66.458 66.0025 66.458C68.7893 66.458 70.3184 64.4357 70.3184 61.9449C70.3184 59.4787 68.7893 57.4564 66.0025 57.4564C63.191 57.4564 61.662 59.4787 61.662 61.9449Z" fill="#C69BFF"/>
<path d="M38 55.8287H40.0716L42.7598 65.7676L42.7351 67.4693H43.3024L45.7193 55.8287H50.2078L52.6 67.4693H53.1919L53.1426 65.7676L55.8061 55.8287H57.9024L54.647 68.0858H50.627L48.2595 56.4206H47.6429L45.2753 68.0858H41.1814L38 55.8287Z" fill="#C69BFF"/>
<defs>
<clipPath id="clip0_232_142">
<rect width="210.797" height="23.2603" fill="white" transform="translate(38 21)"/>
</clipPath>
</defs>
</svg>
