<svg width="227" height="56" viewBox="0 0 227 56" fill="none" xmlns="http://www.w3.org/2000/svg">
<g clip-path="url(#clip0_228_47)">
<path d="M91.2252 0.416748H81.2465V24.6181H91.2252C98.7978 24.6181 103.186 19.7917 103.186 12.5001C103.186 5.24313 98.7978 0.416748 91.2252 0.416748ZM91.2252 21.3195H85.1034V3.68063H91.2252C96.3562 3.68063 99.2931 7.04869 99.2931 12.5001C99.2931 17.9514 96.3562 21.3195 91.2252 21.3195Z" fill="black"/>
<path d="M69.5336 19.7917L70.3121 23.3681H69.7814L58.8826 0.416748H58.8472H51.8761V24.6181H55.6978V5.20841L54.9193 1.63202H55.4502L66.349 24.6181H66.3844H73.3553V0.416748H69.5336V19.7917Z" fill="black"/>
<path d="M12.2435 11.007C8.56336 10.625 5.20171 10.243 5.20171 7.25694C5.20171 4.82639 7.36025 3.29861 11.0758 3.29861C14.7205 3.29861 17.6929 5.20833 17.8344 9.16666H21.7623C21.4792 3.29861 17.1975 0 11.005 0C5.16633 0 1.34466 2.8125 1.34466 7.01389C1.34466 13.125 6.7587 13.75 11.5712 14.2708C15.2159 14.6528 18.4714 15 18.4714 17.8472C18.4714 20.1736 15.8883 21.6319 11.7127 21.6319C7.43103 21.6319 4.03398 19.6875 3.89244 15.7292H0C0.283086 21.5972 4.9894 24.9306 11.7835 24.9306C18.1176 24.9306 22.3639 22.1875 22.3639 18.0903C22.3639 12.1528 17.0206 11.5278 12.2435 11.007Z" fill="black"/>
<path d="M36.4122 15.4167H35.8459L28.6627 0.416748H24.4872L31.8121 15.6251H34.2183V24.6181H38.04V15.6251H40.4816L47.7711 0.416748H43.5956L36.4122 15.4167Z" fill="black"/>
<path d="M164.154 0.069458C156.865 0.069458 152.088 5.03473 152.088 12.5347C152.088 20.0347 156.829 25 164.154 25C171.232 25 176.008 20.0347 176.008 12.5347C176.008 5.03473 171.232 0.069458 164.154 0.069458ZM164.083 21.8403C159.235 21.8403 155.98 18.2986 155.98 12.5695C155.98 6.87501 159.235 3.33334 164.083 3.33334C168.825 3.33334 172.116 6.87501 172.116 12.5695C172.116 18.3333 168.825 21.8403 164.083 21.8403Z" fill="black"/>
<path d="M227 3.68063V0.416748H209.909V24.6181H227V21.3195H213.731V13.7501H227V10.4515H213.731V3.68063H227Z" fill="black"/>
<path d="M191.968 0.416748H181.99V24.6181H191.968C199.541 24.6181 203.929 19.7917 203.929 12.5001C203.893 5.24313 199.541 0.416748 191.968 0.416748ZM191.968 21.3195H185.847V3.68063H191.968C197.1 3.68063 200.037 7.04869 200.037 12.5001C200.037 17.9514 197.1 21.3195 191.968 21.3195Z" fill="black"/>
<path d="M135.457 3.33328C139.597 3.33328 142.534 5.69438 143.348 9.65272H147.276C146.32 3.78466 141.932 0.034668 135.669 0.034668C128.38 0.034668 123.602 4.99994 123.602 12.4999C123.602 20 128.344 24.9653 135.669 24.9653C141.897 24.9653 146.32 21.2153 147.276 15.3472H143.348C142.534 19.4443 139.561 21.8403 135.457 21.8403C130.75 21.8403 127.495 18.2639 127.495 12.4999C127.495 6.84022 130.715 3.33328 135.457 3.33328Z" fill="black"/>
<path d="M105.484 24.6181H109.66L121.267 0.416748H117.091L105.484 24.6181Z" fill="#C69BFF"/>
</g>
<path d="M206.302 51.384C202.03 51.384 200.23 48.528 200.23 44.976C200.23 41.472 202.198 38.616 206.302 38.616C210.118 38.616 212.086 41.328 212.086 44.76C212.086 45.072 212.086 45.36 212.038 45.672H202.582C202.774 48.696 204.31 49.608 206.374 49.608C208.558 49.608 209.518 48.624 209.854 47.376H212.062C211.846 49.032 210.526 51.384 206.302 51.384ZM202.606 43.92H209.782C209.662 41.496 208.462 40.392 206.326 40.392C204.262 40.392 202.894 41.256 202.606 43.92Z" fill="#777E90"/>
<path d="M195.601 43.728C195.601 41.448 194.641 40.608 193.057 40.608C190.849 40.608 189.649 42.12 189.649 45.936V51H187.297V43.728C187.297 41.448 186.337 40.608 184.753 40.608C182.593 40.608 181.345 42.12 181.345 45.936V51H178.945V39H181.345V41.616C182.041 39.864 183.337 38.616 185.569 38.616C187.825 38.616 189.049 39.696 189.481 41.712C190.177 39.912 191.497 38.616 193.873 38.616C196.729 38.616 198.001 40.368 198.001 43.512V51H195.601V43.728Z" fill="#777E90"/>
<path d="M170.794 51.384C166.522 51.384 164.722 48.528 164.722 44.976C164.722 41.472 166.69 38.616 170.794 38.616C174.61 38.616 176.578 41.328 176.578 44.76C176.578 45.072 176.578 45.36 176.53 45.672H167.074C167.266 48.696 168.802 49.608 170.866 49.608C173.05 49.608 174.01 48.624 174.346 47.376H176.554C176.338 49.032 175.018 51.384 170.794 51.384ZM167.098 43.92H174.274C174.154 41.496 172.954 40.392 170.818 40.392C168.754 40.392 167.386 41.256 167.098 43.92Z" fill="#777E90"/>
<path d="M151.383 51V34.2H153.783V41.688C154.503 39.912 155.823 38.616 158.127 38.616C161.319 38.616 162.495 40.368 162.495 43.512V51H160.095V43.728C160.095 41.208 158.943 40.608 157.431 40.608C155.079 40.608 153.783 42.12 153.783 45.936V51H151.383Z" fill="#777E90"/>
<path d="M146.376 51C143.472 51 142.752 49.872 142.752 47.472V40.848H140.472V39.6L142.968 38.736L143.952 36.288H145.152V39H148.992V40.848H145.152V49.08H148.752V51H146.376Z" fill="#777E90"/>
<path d="M125.118 46.992C125.214 48.456 126.198 49.608 128.526 49.608C130.662 49.608 131.19 48.864 131.19 47.76C131.19 46.776 130.638 46.224 129.366 46.032L126.39 45.576C124.302 45.264 123.174 44.112 123.174 42.288C123.174 39.984 125.022 38.592 128.166 38.592C131.262 38.592 133.182 40.152 133.35 42.408H130.95C130.83 41.304 129.942 40.368 128.094 40.368C126.246 40.368 125.502 41.112 125.502 42.072C125.502 42.792 125.862 43.392 127.158 43.584L129.75 43.968C132.726 44.424 133.542 45.792 133.542 47.64C133.542 50.112 131.934 51.384 128.454 51.384C124.494 51.384 122.886 49.44 122.886 46.992H125.118Z" fill="#777E90"/>
<path d="M112.743 46.992C112.839 48.456 113.823 49.608 116.151 49.608C118.287 49.608 118.815 48.864 118.815 47.76C118.815 46.776 118.263 46.224 116.991 46.032L114.015 45.576C111.927 45.264 110.799 44.112 110.799 42.288C110.799 39.984 112.647 38.592 115.791 38.592C118.887 38.592 120.807 40.152 120.975 42.408H118.575C118.455 41.304 117.567 40.368 115.719 40.368C113.871 40.368 113.127 41.112 113.127 42.072C113.127 42.792 113.487 43.392 114.783 43.584L117.375 43.968C120.351 44.424 121.167 45.792 121.167 47.64C121.167 50.112 119.559 51.384 116.079 51.384C112.119 51.384 110.511 49.44 110.511 46.992H112.743Z" fill="#777E90"/>
<path d="M103.201 51.384C98.9285 51.384 97.1285 48.528 97.1285 44.976C97.1285 41.472 99.0965 38.616 103.201 38.616C107.017 38.616 108.985 41.328 108.985 44.76C108.985 45.072 108.985 45.36 108.937 45.672H99.4805C99.6725 48.696 101.209 49.608 103.273 49.608C105.457 49.608 106.417 48.624 106.753 47.376H108.961C108.745 49.032 107.425 51.384 103.201 51.384ZM99.5045 43.92H106.681C106.561 41.496 105.361 40.392 103.225 40.392C101.161 40.392 99.7925 41.256 99.5045 43.92Z" fill="#777E90"/>
<path d="M88.9685 51V39H91.3445V41.904C92.0645 40.128 93.3605 38.808 95.5925 38.808H95.9525V41.136H95.3525C92.1365 41.136 91.3685 43.152 91.3685 46.416V51H88.9685Z" fill="#777E90"/>
<path d="M80.8554 51.384C78.6954 51.384 77.2314 50.496 76.4154 48.936V55.8H74.0154V39H76.4154V41.064C77.2314 39.504 78.6954 38.616 80.8554 38.616C84.7194 38.616 86.4474 41.472 86.4474 45C86.4474 48.528 84.7194 51.384 80.8554 51.384ZM76.4154 45C76.4154 48.072 77.8314 49.464 80.3514 49.464C83.0154 49.464 84.0234 47.976 84.0234 45C84.0234 42.024 83.0154 40.536 80.3514 40.536C77.8314 40.536 76.4154 41.928 76.4154 45Z" fill="#777E90"/>
<path d="M63.8388 38.616C65.9988 38.616 67.4628 39.504 68.2788 41.064V34.2H70.6788V51H68.2788V48.936C67.4628 50.496 65.9988 51.384 63.8388 51.384C59.9748 51.384 58.2468 48.528 58.2468 45C58.2468 41.472 59.9748 38.616 63.8388 38.616ZM60.6708 45C60.6708 47.976 61.6788 49.464 64.3428 49.464C66.8628 49.464 68.2788 48.072 68.2788 45C68.2788 41.928 66.8628 40.536 64.3428 40.536C61.6788 40.536 60.6708 42.024 60.6708 45Z" fill="#777E90"/>
<path d="M50.0388 51V39H52.4148V41.904C53.1348 40.128 54.4308 38.808 56.6628 38.808H57.0228V41.136H56.4228C53.2068 41.136 52.4388 43.152 52.4388 46.416V51H50.0388Z" fill="#777E90"/>
<path d="M41.3752 51.384C37.1992 51.384 35.1832 48.528 35.1832 44.976C35.1832 41.472 37.1992 38.616 41.3752 38.616C45.5512 38.616 47.5672 41.496 47.5672 44.976C47.5672 48.504 45.5512 51.384 41.3752 51.384ZM37.6072 45C37.6072 48.192 38.7832 49.464 41.3752 49.464C43.9672 49.464 45.1432 48.192 45.1432 45C45.1432 41.808 43.9672 40.536 41.3752 40.536C38.7832 40.536 37.6072 41.808 37.6072 45Z" fill="#777E90"/>
<path d="M17.888 51L14.288 39H16.76L19.712 49.2L23.168 39H25.568L29.024 49.2L31.976 39H34.304L30.704 51H27.296L24.296 41.88L21.296 51H17.888Z" fill="#777E90"/>
<defs>
<clipPath id="clip0_228_47">
<rect width="227" height="25" fill="white"/>
</clipPath>
</defs>
</svg>
