<svg width="227" height="56" viewBox="0 0 227 56" fill="none" xmlns="http://www.w3.org/2000/svg">
<g clip-path="url(#clip0_230_81)">
<path d="M91.2254 0.416748H81.2466V24.6181H91.2254C98.7979 24.6181 103.186 19.7917 103.186 12.5001C103.186 5.24314 98.7979 0.416748 91.2254 0.416748ZM91.2254 21.3195H85.1036V3.68064H91.2254C96.3563 3.68064 99.2933 7.0487 99.2933 12.5001C99.2933 17.9514 96.3563 21.3195 91.2254 21.3195Z" fill="#0B0C0F"/>
<path d="M69.5335 19.7917L70.312 23.3681H69.7813L58.8825 0.416748H58.8471H51.876V24.6181H55.6977V5.20842L54.9192 1.63202H55.4501L66.3489 24.6181H66.3843H73.3552V0.416748H69.5335V19.7917Z" fill="#0B0C0F"/>
<path d="M12.2435 11.007C8.56337 10.625 5.20172 10.2431 5.20172 7.25694C5.20172 4.8264 7.36026 3.29861 11.0758 3.29861C14.7205 3.29861 17.6929 5.20833 17.8344 9.16667H21.7623C21.4792 3.29861 17.1975 0 11.005 0C5.16634 0 1.34466 2.8125 1.34466 7.0139C1.34466 13.125 6.75871 13.75 11.5712 14.2708C15.2159 14.6528 18.4714 15 18.4714 17.8472C18.4714 20.1736 15.8883 21.6319 11.7127 21.6319C7.43103 21.6319 4.03398 19.6875 3.89244 15.7292H0C0.283087 21.5972 4.9894 24.9306 11.7835 24.9306C18.1176 24.9306 22.3639 22.1875 22.3639 18.0903C22.3639 12.1528 17.0206 11.5278 12.2435 11.007Z" fill="#0B0C0F"/>
<path d="M36.4123 15.4168H35.8461L28.6629 0.416748H24.4873L31.8122 15.6252H34.2184V24.6181H38.0402V15.6252H40.4817L47.7713 0.416748H43.5957L36.4123 15.4168Z" fill="#0B0C0F"/>
<path d="M164.154 0.069458C156.865 0.069458 152.088 5.03474 152.088 12.5347C152.088 20.0347 156.829 25.0001 164.154 25.0001C171.232 25.0001 176.008 20.0347 176.008 12.5347C176.008 5.03474 171.232 0.069458 164.154 0.069458ZM164.084 21.8404C159.235 21.8404 155.98 18.2986 155.98 12.5695C155.98 6.87502 159.235 3.33335 164.084 3.33335C168.826 3.33335 172.117 6.87502 172.117 12.5695C172.117 18.3333 168.826 21.8404 164.084 21.8404Z" fill="#0B0C0F"/>
<path d="M227 3.68064V0.416748H209.91V24.6181H227V21.3195H213.731V13.7501H227V10.4515H213.731V3.68064H227Z" fill="#0B0C0F"/>
<path d="M191.969 0.416748H181.99V24.6181H191.969C199.541 24.6181 203.929 19.7917 203.929 12.5001C203.893 5.24314 199.541 0.416748 191.969 0.416748ZM191.969 21.3195H185.848V3.68064H191.969C197.101 3.68064 200.038 7.0487 200.038 12.5001C200.038 17.9514 197.101 21.3195 191.969 21.3195Z" fill="#0B0C0F"/>
<path d="M135.457 3.33329C139.597 3.33329 142.534 5.69438 143.348 9.65273H147.276C146.32 3.78466 141.932 0.034668 135.669 0.034668C128.38 0.034668 123.603 4.99994 123.603 12.5C123.603 20 128.344 24.9653 135.669 24.9653C141.897 24.9653 146.32 21.2153 147.276 15.3472H143.348C142.534 19.4443 139.562 21.8403 135.457 21.8403C130.751 21.8403 127.495 18.2639 127.495 12.5C127.495 6.84023 130.715 3.33329 135.457 3.33329Z" fill="#0B0C0F"/>
<path d="M105.484 24.6181H109.66L121.267 0.416748H117.091L105.484 24.6181Z" fill="#C69BFF"/>
</g>
<path d="M214.185 43.8905C214.185 39.6188 216.732 37.2043 220.5 37.2043C224.4 37.2043 226.947 39.5657 226.947 43.6517V44.5007H216.467C216.546 47.0744 217.9 49.0377 220.632 49.0377C222.888 49.0377 224.214 47.8703 224.665 46.0396H227C226.47 48.4806 224.718 50.9215 220.659 50.9215C216.361 50.9215 214.185 47.7907 214.185 43.8905ZM216.493 42.8292H224.639C224.48 40.4413 222.861 39.0616 220.5 39.0616C218.324 39.0616 216.679 40.4413 216.493 42.8292Z" fill="#0B0C0F"/>
<path d="M190.749 50.6562V37.4697H193.11V39.6188L192.712 41.2107H193.375C193.906 38.8228 195.259 37.2043 198.071 37.2043C200.486 37.2043 201.706 38.8493 202.025 41.2107H202.449C202.98 38.8228 204.333 37.2043 207.145 37.2043C209.958 37.2043 211.258 39.4596 211.258 42.4577V50.6562H208.897V42.9618C208.897 40.4148 208.339 39.2208 206.243 39.2208C203.67 39.2208 202.184 41.5026 202.184 44.9518V50.6562H199.823V42.9618C199.823 40.4148 199.265 39.2208 197.169 39.2208C194.596 39.2208 193.11 41.5026 193.11 44.9518V50.6562H190.749Z" fill="#0B0C0F"/>
<path d="M174.775 43.8905C174.775 39.6188 177.322 37.2043 181.09 37.2043C184.99 37.2043 187.537 39.5657 187.537 43.6517V44.5007H177.057C177.136 47.0744 178.489 49.0377 181.222 49.0377C183.477 49.0377 184.804 47.8703 185.255 46.0396H187.59C187.059 48.4806 185.308 50.9215 181.249 50.9215C176.951 50.9215 174.775 47.7907 174.775 43.8905ZM177.083 42.8292H185.229C185.069 40.4413 183.451 39.0616 181.09 39.0616C178.914 39.0616 177.269 40.4413 177.083 42.8292Z" fill="#0B0C0F"/>
<path d="M159.189 50.6563V31.155H161.551V39.6719L161.126 41.2638H161.816C162.4 38.8759 164.151 37.2044 167.016 37.2044C170.015 37.2044 171.819 39.1678 171.819 42.7231V50.6563H169.484V42.9884C169.484 40.2821 168.449 39.2208 166.194 39.2208C163.328 39.2208 161.551 41.5026 161.551 45.0579V50.6563H159.189Z" fill="#0B0C0F"/>
<path d="M156.206 48.6397V50.6561H151.032C149.785 50.6561 149.175 50.0724 149.175 48.7989V39.486H146.256V37.4696H149.175V34.1265L151.536 33.4102V37.4696H155.675V39.486H151.536V48.6662L156.206 48.6397Z" fill="#0B0C0F"/>
<path d="M130.894 50.9215C126.967 50.9215 124.686 49.0643 124.686 45.8008H127.047C127.047 47.9765 128.48 49.0643 130.921 49.0643C132.778 49.0643 133.733 48.4806 133.733 47.1274C133.733 46.2253 133.176 45.6947 131.796 45.3232L128.267 44.2885C126.782 43.8639 125.216 42.9088 125.216 40.8127C125.216 38.5044 127.127 37.2043 130.257 37.2043C133.653 37.2043 135.776 38.7697 135.776 41.6352H133.415C133.415 39.8841 132.3 39.0351 130.284 39.0351C128.586 39.0351 127.551 39.6188 127.551 40.7862C127.551 41.6352 128.135 42.1659 129.435 42.5373L132.513 43.4129C134.741 44.0497 136.094 45.1375 136.094 47.1805C136.094 49.5684 134.29 50.9215 130.894 50.9215Z" fill="#0B0C0F"/>
<path d="M117.498 50.9215C113.571 50.9215 111.29 49.0643 111.29 45.8008H113.651C113.651 47.9765 115.084 49.0643 117.525 49.0643C119.382 49.0643 120.337 48.4806 120.337 47.1274C120.337 46.2253 119.78 45.6947 118.4 45.3232L114.871 44.2885C113.386 43.8639 111.82 42.9088 111.82 40.8127C111.82 38.5044 113.731 37.2043 116.861 37.2043C120.257 37.2043 122.38 38.7697 122.38 41.6352H120.019C120.019 39.8841 118.904 39.0351 116.888 39.0351C115.19 39.0351 114.155 39.6188 114.155 40.7862C114.155 41.6352 114.739 42.1659 116.039 42.5373L119.117 43.4129C121.345 44.0497 122.698 45.1375 122.698 47.1805C122.698 49.5684 120.894 50.9215 117.498 50.9215Z" fill="#0B0C0F"/>
<path d="M96.0591 43.8905C96.0591 39.6188 98.6062 37.2043 102.374 37.2043C106.274 37.2043 108.821 39.5657 108.821 43.6517V44.5007H98.3409C98.4205 47.0744 99.7736 49.0377 102.506 49.0377C104.762 49.0377 106.088 47.8703 106.539 46.0396H108.874C108.344 48.4806 106.592 50.9215 102.533 50.9215C98.2347 50.9215 96.0591 47.7907 96.0591 43.8905ZM98.3674 42.8292H106.513C106.354 40.4413 104.735 39.0616 102.374 39.0616C100.198 39.0616 98.5531 40.4413 98.3674 42.8292Z" fill="#0B0C0F"/>
<path d="M85.5527 39.3005C85.5527 38.0534 86.163 37.4697 87.41 37.4697H94.8656V39.4862H87.9141V50.6563H85.5527V39.3005Z" fill="#0B0C0F"/>
<path d="M68.1919 55.8035V37.4697H70.5533V39.3004L70.1553 40.8658H70.8186C71.3758 38.8228 73.1004 37.2043 76.125 37.2043C79.9722 37.2043 82.3867 40.1494 82.3867 44.0762C82.3867 47.9499 79.9722 50.9215 76.125 50.9215C73.1004 50.9215 71.3758 49.2765 70.8186 47.2335H70.1553L70.5533 48.8255V55.8035H68.1919ZM70.5533 44.0762C70.5533 47.4723 72.7024 48.9051 75.3821 48.9051C78.0884 48.9051 80.0518 47.4193 80.0518 44.0762C80.0518 40.7066 78.0884 39.2208 75.3821 39.2208C72.7024 39.2208 70.5533 40.6535 70.5533 44.0762Z" fill="#0B0C0F"/>
<path d="M56.8739 50.9216C53.0267 50.9216 50.6123 47.95 50.6123 44.0497C50.6123 40.1495 53.0267 37.2044 56.8739 37.2044C59.8986 37.2044 61.6232 38.8229 62.2069 40.8658H62.8702L62.4722 39.3004V31.155H64.8071V50.6563H62.4722V48.8255L62.8702 47.2336H62.2069C61.6232 49.2766 59.8986 50.9216 56.8739 50.9216ZM52.9737 44.0497C52.9737 47.4458 54.9371 48.9051 57.6168 48.9051C60.2966 48.9051 62.4722 47.4458 62.4722 44.0497C62.4722 40.6536 60.2966 39.2208 57.6168 39.2208C54.9371 39.2208 52.9737 40.6536 52.9737 44.0497Z" fill="#0B0C0F"/>
<path d="M40.2612 39.3005C40.2612 38.0534 40.8715 37.4697 42.1185 37.4697H49.5741V39.4862H42.6226V50.6563H40.2612V39.3005Z" fill="#0B0C0F"/>
<path d="M23.1216 44.0497C23.1216 40.1494 25.9075 37.2043 30.1261 37.2043C34.3182 37.2043 37.1041 40.1494 37.1041 44.0497C37.1041 47.9764 34.3182 50.9215 30.1261 50.9215C25.9075 50.9215 23.1216 47.9764 23.1216 44.0497ZM25.4564 44.0497C25.4564 46.7294 27.1014 48.9051 30.1261 48.9051C33.1242 48.9051 34.7692 46.7294 34.7692 44.0497C34.7692 41.3964 33.1242 39.2208 30.1261 39.2208C27.1014 39.2208 25.4564 41.3964 25.4564 44.0497Z" fill="#0B0C0F"/>
<path d="M0 37.4697H2.22871L5.12073 48.1622L5.0942 49.993H5.70444L8.3046 37.4697H13.1335L15.7071 49.993H16.3439L16.2908 48.1622L19.1563 37.4697H21.4115L17.9093 50.6563H13.5845L11.0374 38.1065H10.3741L7.82702 50.6563H3.42266L0 37.4697Z" fill="#0B0C0F"/>
<defs>
<clipPath id="clip0_230_81">
<rect width="227" height="25" fill="white"/>
</clipPath>
</defs>
</svg>
