<svg width="227" height="56" viewBox="0 0 227 56" fill="none" xmlns="http://www.w3.org/2000/svg">
<g clip-path="url(#clip0_228_47)">
<path d="M91.2252 0.416748H81.2465V24.6181H91.2252C98.7978 24.6181 103.186 19.7917 103.186 12.5001C103.186 5.24314 98.7978 0.416748 91.2252 0.416748ZM91.2252 21.3195H85.1034V3.68064H91.2252C96.3562 3.68064 99.2931 7.0487 99.2931 12.5001C99.2931 17.9514 96.3562 21.3195 91.2252 21.3195Z" fill="black"/>
<path d="M69.5336 19.7917L70.3121 23.3681H69.7814L58.8826 0.416748H58.8472H51.8761V24.6181H55.6978V5.20842L54.9193 1.63202H55.4502L66.349 24.6181H66.3844H73.3553V0.416748H69.5336V19.7917Z" fill="black"/>
<path d="M12.2435 11.007C8.56337 10.625 5.20172 10.2431 5.20172 7.25694C5.20172 4.8264 7.36026 3.29861 11.0758 3.29861C14.7205 3.29861 17.6929 5.20833 17.8344 9.16667H21.7623C21.4792 3.29861 17.1975 0 11.005 0C5.16634 0 1.34466 2.8125 1.34466 7.0139C1.34466 13.125 6.75871 13.75 11.5712 14.2708C15.2159 14.6528 18.4714 15 18.4714 17.8472C18.4714 20.1736 15.8883 21.6319 11.7127 21.6319C7.43103 21.6319 4.03398 19.6875 3.89244 15.7292H0C0.283087 21.5972 4.9894 24.9306 11.7835 24.9306C18.1176 24.9306 22.3639 22.1875 22.3639 18.0903C22.3639 12.1528 17.0206 11.5278 12.2435 11.007Z" fill="black"/>
<path d="M36.4122 15.4168H35.846L28.6627 0.416748H24.4872L31.8121 15.6252H34.2183V24.6181H38.04V15.6252H40.4816L47.7711 0.416748H43.5956L36.4122 15.4168Z" fill="black"/>
<path d="M164.154 0.069458C156.865 0.069458 152.088 5.03474 152.088 12.5347C152.088 20.0347 156.829 25.0001 164.154 25.0001C171.232 25.0001 176.008 20.0347 176.008 12.5347C176.008 5.03474 171.232 0.069458 164.154 0.069458ZM164.084 21.8404C159.235 21.8404 155.98 18.2986 155.98 12.5695C155.98 6.87502 159.235 3.33335 164.084 3.33335C168.826 3.33335 172.116 6.87502 172.116 12.5695C172.116 18.3333 168.826 21.8404 164.084 21.8404Z" fill="black"/>
<path d="M227 3.68064V0.416748H209.909V24.6181H227V21.3195H213.731V13.7501H227V10.4515H213.731V3.68064H227Z" fill="black"/>
<path d="M191.969 0.416748H181.99V24.6181H191.969C199.541 24.6181 203.929 19.7917 203.929 12.5001C203.893 5.24314 199.541 0.416748 191.969 0.416748ZM191.969 21.3195H185.847V3.68064H191.969C197.1 3.68064 200.037 7.0487 200.037 12.5001C200.037 17.9514 197.1 21.3195 191.969 21.3195Z" fill="black"/>
<path d="M135.457 3.33329C139.597 3.33329 142.534 5.69438 143.348 9.65273H147.276C146.32 3.78466 141.932 0.034668 135.669 0.034668C128.38 0.034668 123.603 4.99994 123.603 12.5C123.603 20 128.344 24.9653 135.669 24.9653C141.897 24.9653 146.32 21.2153 147.276 15.3472H143.348C142.534 19.4443 139.562 21.8403 135.457 21.8403C130.751 21.8403 127.495 18.2639 127.495 12.5C127.495 6.84023 130.715 3.33329 135.457 3.33329Z" fill="black"/>
<path d="M105.484 24.6181H109.66L121.267 0.416748H117.091L105.484 24.6181Z" fill="#C69BFF"/>
</g>
<path d="M214.185 43.8905C214.185 39.6188 216.732 37.2043 220.5 37.2043C224.4 37.2043 226.947 39.5657 226.947 43.6517V44.5007H216.467C216.546 47.0744 217.899 49.0377 220.632 49.0377C222.888 49.0377 224.214 47.8703 224.665 46.0396H227C226.469 48.4806 224.718 50.9215 220.659 50.9215C216.361 50.9215 214.185 47.7907 214.185 43.8905ZM216.493 42.8292H224.639C224.479 40.4413 222.861 39.0616 220.5 39.0616C218.324 39.0616 216.679 40.4413 216.493 42.8292Z" fill="#C69BFF"/>
<path d="M190.749 50.6562V37.4697H193.11V39.6188L192.712 41.2107H193.375C193.906 38.8228 195.259 37.2043 198.071 37.2043C200.486 37.2043 201.706 38.8493 202.025 41.2107H202.449C202.98 38.8228 204.333 37.2043 207.145 37.2043C209.958 37.2043 211.258 39.4596 211.258 42.4577V50.6562H208.897V42.9618C208.897 40.4148 208.339 39.2208 206.243 39.2208C203.67 39.2208 202.184 41.5026 202.184 44.9518V50.6562H199.823V42.9618C199.823 40.4148 199.265 39.2208 197.169 39.2208C194.596 39.2208 193.11 41.5026 193.11 44.9518V50.6562H190.749Z" fill="#C69BFF"/>
<path d="M174.775 43.8905C174.775 39.6188 177.322 37.2043 181.09 37.2043C184.99 37.2043 187.537 39.5657 187.537 43.6517V44.5007H177.057C177.137 47.0744 178.49 49.0377 181.222 49.0377C183.478 49.0377 184.804 47.8703 185.255 46.0396H187.59C187.06 48.4806 185.308 50.9215 181.249 50.9215C176.951 50.9215 174.775 47.7907 174.775 43.8905ZM177.083 42.8292H185.229C185.07 40.4413 183.451 39.0616 181.09 39.0616C178.914 39.0616 177.269 40.4413 177.083 42.8292Z" fill="#C69BFF"/>
<path d="M159.19 50.6563V31.155H161.551V39.6719L161.126 41.2638H161.816C162.4 38.8759 164.151 37.2044 167.017 37.2044C170.015 37.2044 171.819 39.1678 171.819 42.7231V50.6563H169.484V42.9884C169.484 40.2821 168.449 39.2208 166.194 39.2208C163.329 39.2208 161.551 41.5026 161.551 45.0579V50.6563H159.19Z" fill="#C69BFF"/>
<path d="M156.206 48.6397V50.6561H151.032C149.785 50.6561 149.175 50.0724 149.175 48.7989V39.486H146.256V37.4696H149.175V34.1265L151.536 33.4102V37.4696H155.675V39.486H151.536V48.6662L156.206 48.6397Z" fill="#C69BFF"/>
<path d="M130.894 50.9215C126.967 50.9215 124.685 49.0643 124.685 45.8008H127.047C127.047 47.9765 128.479 49.0643 130.92 49.0643C132.778 49.0643 133.733 48.4806 133.733 47.1274C133.733 46.2253 133.176 45.6947 131.796 45.3232L128.267 44.2885C126.781 43.8639 125.216 42.9088 125.216 40.8127C125.216 38.5044 127.126 37.2043 130.257 37.2043C133.653 37.2043 135.776 38.7697 135.776 41.6352H133.414C133.414 39.8841 132.3 39.0351 130.284 39.0351C128.586 39.0351 127.551 39.6188 127.551 40.7862C127.551 41.6352 128.134 42.1659 129.435 42.5373L132.512 43.4129C134.741 44.0497 136.094 45.1375 136.094 47.1805C136.094 49.5684 134.29 50.9215 130.894 50.9215Z" fill="#C69BFF"/>
<path d="M117.498 50.9215C113.571 50.9215 111.29 49.0643 111.29 45.8008H113.651C113.651 47.9765 115.084 49.0643 117.525 49.0643C119.382 49.0643 120.337 48.4806 120.337 47.1274C120.337 46.2253 119.78 45.6947 118.4 45.3232L114.872 44.2885C113.386 43.8639 111.82 42.9088 111.82 40.8127C111.82 38.5044 113.731 37.2043 116.861 37.2043C120.258 37.2043 122.38 38.7697 122.38 41.6352H120.019C120.019 39.8841 118.904 39.0351 116.888 39.0351C115.19 39.0351 114.155 39.6188 114.155 40.7862C114.155 41.6352 114.739 42.1659 116.039 42.5373L119.117 43.4129C121.345 44.0497 122.699 45.1375 122.699 47.1805C122.699 49.5684 120.894 50.9215 117.498 50.9215Z" fill="#C69BFF"/>
<path d="M96.0592 43.8905C96.0592 39.6188 98.6063 37.2043 102.374 37.2043C106.274 37.2043 108.821 39.5657 108.821 43.6517V44.5007H98.341C98.4206 47.0744 99.7737 49.0377 102.507 49.0377C104.762 49.0377 106.088 47.8703 106.539 46.0396H108.874C108.344 48.4806 106.593 50.9215 102.533 50.9215C98.2349 50.9215 96.0592 47.7907 96.0592 43.8905ZM98.3675 42.8292H106.513C106.354 40.4413 104.735 39.0616 102.374 39.0616C100.198 39.0616 98.5532 40.4413 98.3675 42.8292Z" fill="#C69BFF"/>
<path d="M85.5527 39.3005C85.5527 38.0534 86.163 37.4697 87.41 37.4697H94.8656V39.4862H87.9141V50.6563H85.5527V39.3005Z" fill="#C69BFF"/>
<path d="M68.1921 55.8035V37.4697H70.5535V39.3004L70.1555 40.8658H70.8188C71.376 38.8228 73.1006 37.2043 76.1253 37.2043C79.9725 37.2043 82.3869 40.1494 82.3869 44.0762C82.3869 47.9499 79.9725 50.9215 76.1253 50.9215C73.1006 50.9215 71.376 49.2765 70.8188 47.2335H70.1555L70.5535 48.8255V55.8035H68.1921ZM70.5535 44.0762C70.5535 47.4723 72.7026 48.9051 75.3824 48.9051C78.0887 48.9051 80.0521 47.4193 80.0521 44.0762C80.0521 40.7066 78.0887 39.2208 75.3824 39.2208C72.7026 39.2208 70.5535 40.6535 70.5535 44.0762Z" fill="#C69BFF"/>
<path d="M56.874 50.9216C53.0269 50.9216 50.6124 47.95 50.6124 44.0497C50.6124 40.1495 53.0269 37.2044 56.874 37.2044C59.8987 37.2044 61.6233 38.8229 62.207 40.8658H62.8703L62.4724 39.3004V31.155H64.8072V50.6563H62.4724V48.8255L62.8703 47.2336H62.207C61.6233 49.2766 59.8987 50.9216 56.874 50.9216ZM52.9738 44.0497C52.9738 47.4458 54.9372 48.9051 57.6169 48.9051C60.2967 48.9051 62.4724 47.4458 62.4724 44.0497C62.4724 40.6536 60.2967 39.2208 57.6169 39.2208C54.9372 39.2208 52.9738 40.6536 52.9738 44.0497Z" fill="#C69BFF"/>
<path d="M40.2614 39.3005C40.2614 38.0534 40.8716 37.4697 42.1186 37.4697H49.5742V39.4862H42.6227V50.6563H40.2614V39.3005Z" fill="#C69BFF"/>
<path d="M23.1215 44.0497C23.1215 40.1494 25.9073 37.2043 30.126 37.2043C34.3181 37.2043 37.104 40.1494 37.104 44.0497C37.104 47.9764 34.3181 50.9215 30.126 50.9215C25.9073 50.9215 23.1215 47.9764 23.1215 44.0497ZM25.4563 44.0497C25.4563 46.7294 27.1013 48.9051 30.126 48.9051C33.1241 48.9051 34.7691 46.7294 34.7691 44.0497C34.7691 41.3964 33.1241 39.2208 30.126 39.2208C27.1013 39.2208 25.4563 41.3964 25.4563 44.0497Z" fill="#C69BFF"/>
<path d="M0 37.4697H2.22871L5.12073 48.1622L5.0942 49.993H5.70444L8.3046 37.4697H13.1335L15.7071 49.993H16.3439L16.2908 48.1622L19.1563 37.4697H21.4115L17.9093 50.6563H13.5845L11.0374 38.1065H10.3741L7.82702 50.6563H3.42266L0 37.4697Z" fill="#C69BFF"/>
<defs>
<clipPath id="clip0_228_47">
<rect width="227" height="25" fill="white"/>
</clipPath>
</defs>
</svg>
